<svg xmlns="http://www.w3.org/2000/svg" width="32" height="32" id="game"><g color="#000" font-family="sans-serif" font-weight="400"><path style="line-height:normal;text-indent:0;text-align:start;text-decoration-line:none;text-decoration-style:solid;text-decoration-color:#000;text-transform:none;block-progression:tb;isolation:auto;mix-blend-mode:normal" fill="#f05542" fill-rule="evenodd" d="M40.992 1360.357a.5.5 0 0 0-.492.506v1.989a.5.5 0 0 0 .5.5h1.992c.373 0 .59.121.748.298.158.177.246.434.246.696 0 .262-.088.516-.246.693-.157.177-.375.299-.748.299h-3.984c-.623 0-1.154.252-1.494.635-.341.383-.5.875-.5 1.359 0 .485.159.976.5 1.36.34.383.87.632 1.494.632H40.5v1.485a.5.5 0 1 0 1 0v-1.985a.5.5 0 0 0-.5-.5h-1.992c-.373 0-.59-.122-.748-.299a1.053 1.053 0 0 1-.246-.693c0-.262.088-.518.246-.695.157-.177.375-.3.748-.3h3.984c.623 0 1.154-.25 1.494-.634.341-.383.5-.873.5-1.357 0-.485-.159-.977-.5-1.36-.34-.383-.87-.634-1.494-.634H41.5v-1.489a.5.5 0 0 0-.508-.506z" overflow="visible" transform="translate(-25 -1353.362)"></path><path style="line-height:normal;text-indent:0;text-align:start;text-decoration-line:none;text-decoration-style:solid;text-decoration-color:#000;text-transform:none;block-progression:tb;isolation:auto;mix-blend-mode:normal" fill="#2b4255" d="M32.475 1370.3c-4.125 0-7.475 3.381-7.475 7.532s3.35 7.53 7.475 7.53c3.035 0 5.713-1.886 6.859-4.686h3.332c1.147 2.8 3.823 4.681 6.857 4.685a.5.5 0 0 0 .002 0c4.125 0 7.475-3.378 7.475-7.529 0-4.15-3.35-7.531-7.475-7.531a.5.5 0 0 0-.005 0h-.071a.5.5 0 0 0-.033 0h-.008a.5.5 0 0 0-.045 0h-.033a.5.5 0 0 0-.017 0h-.03a.5.5 0 0 0-.021 0h-.028a.5.5 0 0 0-.027 0H47.104a.5.5 0 1 0 0 1h2.158-.028.07-.02.066-.02.197c3.58 0 6.473 2.917 6.473 6.531 0 3.615-2.895 6.53-6.475 6.53-2.74 0-5.18-1.743-6.095-4.352a.5.5 0 0 0-.47-.334H39.04a.5.5 0 0 0-.47.334c-.916 2.609-3.356 4.351-6.096 4.351-3.58 0-6.475-2.914-6.475-6.529 0-3.615 2.895-6.531 6.475-6.531h.031a.5.5 0 0 0 .018 0h.027a.5.5 0 0 0 .021 0h.024a.5.5 0 0 0 .025 0h.02a.5.5 0 0 0 .029 0h9.771a.5.5 0 1 0 0-1H32.87a.5.5 0 0 0-.006 0h-.193.027-.222zm11.785 0a.5.5 0 1 0 0 1h.808a.5.5 0 1 0 0-1h-.808z" overflow="visible" transform="translate(-25 -1353.362)"></path><path style="line-height:normal;text-indent:0;text-align:start;text-decoration-line:none;text-decoration-style:solid;text-decoration-color:#000;text-transform:none;block-progression:tb;isolation:auto;mix-blend-mode:normal" fill="#2b4255" fill-rule="evenodd" d="M32.08 1374.2a.5.5 0 0 0-.492.507v6.25a.5.5 0 1 0 1 0v-6.25a.5.5 0 0 0-.508-.508z" overflow="visible" transform="translate(-25 -1353.362)"></path><path style="line-height:normal;text-indent:0;text-align:start;text-decoration-line:none;text-decoration-style:solid;text-decoration-color:#000;text-transform:none;block-progression:tb;isolation:auto;mix-blend-mode:normal" fill="#2b4255" fill-rule="evenodd" d="M28.988 1377.332a.5.5 0 1 0 0 1h6.2a.5.5 0 1 0 0-1h-6.2zm10.012-1.52a.5.5 0 1 0 0 1h1a.5.5 0 1 0 0-1h-1zm3 0a.5.5 0 1 0 0 1h1a.5.5 0 1 0 0-1h-1z" overflow="visible" transform="translate(-25 -1353.362)"></path><path style="line-height:normal;text-indent:0;text-align:start;text-decoration-line:none;text-decoration-style:solid;text-decoration-color:#000;text-transform:none;block-progression:tb;isolation:auto;mix-blend-mode:normal" fill="#2b4255" d="M41 1353.361c-2.203 0-4 1.796-4 3.998a4.007 4.007 0 0 0 4 3.998c2.203 0 4-1.796 4-3.998a4.007 4.007 0 0 0-4-3.998zm0 1c1.663 0 3 1.337 3 2.998a2.992 2.992 0 0 1-3 2.998c-1.663 0-3-1.336-3-2.998a2.992 2.992 0 0 1 3-2.998z" overflow="visible" transform="translate(-25 -1353.362)"></path><path style="line-height:normal;text-indent:0;text-align:start;text-decoration-line:none;text-decoration-style:solid;text-decoration-color:#000;text-transform:none;block-progression:tb;isolation:auto;mix-blend-mode:normal" fill="#2b4255" fill-rule="evenodd" d="m42.146 1355.83-1.646 1.645-.646-.645-.708.707 1.354 1.352 2.354-2.352-.708-.707z" overflow="visible" transform="translate(-25 -1353.362)"></path><path style="line-height:normal;text-indent:0;text-align:start;text-decoration-line:none;text-decoration-style:solid;text-decoration-color:#000;text-transform:none;block-progression:tb;isolation:auto;mix-blend-mode:normal" fill="#2b4255" d="M46.463 1376.078c-.96 0-1.746.793-1.746 1.754 0 .96.786 1.754 1.746 1.754s1.744-.793 1.744-1.754c0-.96-.784-1.754-1.744-1.754zm0 1c.416 0 .744.33.744.754a.741.741 0 0 1-.744.754.743.743 0 0 1-.746-.754c0-.424.33-.754.746-.754zm3.1-4.125c-.96 0-1.747.793-1.747 1.754 0 .96.787 1.754 1.746 1.754.96 0 1.745-.793 1.745-1.754 0-.96-.785-1.754-1.745-1.754zm0 1c.415 0 .744.33.744.754a.741.741 0 0 1-.745.754.743.743 0 0 1-.746-.754c0-.424.33-.754.746-.754zm3.1 2.125c-.96 0-1.747.793-1.747 1.754 0 .96.786 1.754 1.746 1.754s1.746-.793 1.746-1.754c0-.96-.786-1.754-1.746-1.754zm0 1c.415 0 .745.33.745.754s-.33.754-.746.754a.743.743 0 0 1-.746-.754c0-.424.33-.754.746-.754zm-3.1 2.125c-.96 0-1.747.793-1.747 1.754 0 .96.787 1.754 1.746 1.754.96 0 1.745-.793 1.745-1.754 0-.96-.785-1.754-1.745-1.754zm0 1c.415 0 .744.33.744.754a.741.741 0 0 1-.745.754.743.743 0 0 1-.746-.754c0-.424.33-.754.746-.754z" overflow="visible" transform="translate(-25 -1353.362)"></path></g></svg>